<svg id="Layer_1" fill="#fff" enable-background="new 0 0 512.032 512.032" height="512" viewBox="0 0 512 512" width="512" xmlns="http://www.w3.org/2000/svg">
	<g>
		<path d="m512.032 440.053c0-1.998-.741-3.977-2.164-5.496-.741-.798-.285-.378-13.835-10.54-10.02-7.517-16.001-19.479-16.001-32.001 0-4.418-3.582-8-8-8h-2.672c-15.258-36.92-24.064-73.052-28.393-112.023 12.801-.494 23.065-11.057 23.065-23.977 0-12.406-9.633-24-24.861-24 10.394-10.172 16.861-24.342 16.861-40 0-30.879-25.121-56-56-56s-56 25.121-56 56c0 15.658 6.467 29.828 16.861 40-15.196 0-24.861 11.574-24.861 24 0 12.92 10.264 23.482 23.065 23.977-3.822 34.394-11.048 66.709-23.924 100.729-20.807-47.048-24.426-81.673-30.089-118.484 20.404-8.342 19.701-37.485-1.052-44.846v-17.376h8c4.418 0 8-3.582 8-8s-3.582-8-8-8h-3.69l17.001-38.253c7.056-15.877-4.583-33.747-21.932-33.747h-23.38v-24h8c13.233 0 24-10.767 24-24s-10.767-24-24-24h-8v-8c0-13.233-10.767-24-24-24s-24 10.767-24 24v8h-8c-13.233 0-24 10.767-24 24s10.767 24 24 24h8v24h-23.38c-17.372 0-28.979 17.892-21.932 33.747l17.001 38.253h-3.69c-4.418 0-8 3.582-8 8s3.582 8 8 8h8v17.376c-20.767 7.366-21.437 36.511-1.052 44.846-6.618 43.017-9.947 72.941-30.089 118.484-12.858-33.972-20.099-66.291-23.924-100.729 12.801-.494 23.065-11.057 23.065-23.977 0-12.406-9.633-24-24.861-24 10.394-10.172 16.861-24.342 16.861-40 0-30.879-25.121-56-56-56s-56 25.121-56 56c0 15.658 6.467 29.828 16.861 40-15.196 0-24.861 11.574-24.861 24 0 12.92 10.264 23.482 23.065 23.977-4.324 38.911-13.108 75.04-28.393 112.023h-2.672c-4.418 0-8 3.582-8 8 0 6.178-1.461 12.36-4.226 17.882-5.241 10.481-12.158 14.406-24.574 23.718-.908.674-1.76 1.661-2.333 2.793-1.157 2.259-.867 2.439-.867 19.607 0 13.233 10.767 24 24 24h96v8c0 13.233 10.767 24 24 24h224c13.233 0 24-10.767 24-24v-8h96c13.233 0 24-10.767 24-24 .002-9.277.002-6.639.002-15.963zm-31.181-8.037h-116.552c-2.796-7.583-4.266-15.677-4.266-24 0-4.418-3.582-8-8-8h112.582c1.769 12.11 7.5 23.414 16.236 32zm-333.783 32c11.809-13.518 18.949-30.181 20.597-48h176.736c1.647 17.819 8.788 34.482 20.597 48-25.409 0-192.197 0-217.93 0zm212.964-280c0-22.056 17.944-40 40-40s40 17.944 40 40-17.944 40-40 40-40-17.944-40-40zm-8 64c0-4.411 3.589-8 8-8h80c4.411 0 8 3.589 8 8s-3.589 8-8 8c-16.203 0-63.957 0-80 0-4.411 0-8-3.589-8-8zm23.161 24h49.68c4.273 38.512 12.11 73.757 27.216 112h-104.112c15.145-38.342 22.953-73.595 27.216-112zm-151.161-80h64v16h-64zm16-128h-16c-4.411 0-8-3.589-8-8s3.589-8 8-8h16c4.418 0 8-3.582 8-8v-16c0-4.411 3.589-8 8-8s8 3.589 8 8v16c0 4.418 3.582 8 8 8h16c4.411 0 8 3.589 8 8s-3.589 8-8 8h-16c-4.418 0-8 3.582-8 8v32h-16v-32c0-4.418-3.582-8-8-8zm-31.379 56h94.76c5.796 0 9.668 5.943 7.311 11.249l-19.89 44.751h-69.602l-19.89-44.751c-2.353-5.297 1.504-11.249 7.311-11.249zm7.379 104h80c4.411 0 8 3.589 8 8s-3.589 8-8 8h-80c-4.411 0-8-3.589-8-8s3.589-8 8-8zm6.864 32h66.273c6.758 43.929 11.415 86.604 41.375 144h-149.023c.994-1.905 1.937-3.815 2.202-4.324 28.237-55.911 32.726-97.767 39.173-139.676zm-150.864-72c0-22.056 17.944-40 40-40s40 17.944 40 40-17.944 40-40 40-40-17.944-40-40zm-8 64c0-4.411 3.589-8 8-8h80c4.411 0 8 3.589 8 8s-3.589 8-8 8c-16.203 0-63.957 0-80 0-4.411 0-8-3.589-8-8zm23.161 24h49.68c4.273 38.512 12.11 73.757 27.216 112h-104.112c15.145-38.342 22.953-73.595 27.216-112zm-39.741 128h112.58c-4.418 0-8 3.582-8 8 0 8.323-1.47 16.417-4.266 24h-116.556c8.59-8.434 14.428-19.509 16.242-32zm-31.42 56v-8h123.276c-4.306 6.058-7.565 8.974-14.591 16h-100.685c-4.411 0-8-3.589-8-8zm360 32c0 4.411-3.589 8-8 8h-224c-4.411 0-8-3.589-8-8v-8h240zm120-32c0 4.411-3.589 8-8 8h-100.685c-7.183-7.183-10.353-10.038-14.591-16h123.276z"/>
	</g>
</svg>