<svg id="Capa_1" fill="#000" enable-background="new 0 0 512 512" height="512" viewBox="0 0 512 512" width="512" xmlns="http://www.w3.org/2000/svg">
	<g>
		<path d="m45 512c24.813 0 45-20.187 45-45 0-19.555-12.541-36.228-30-42.42v-33.58h90v33.58c-17.459 6.192-30 22.865-30 42.42 0 24.813 20.187 45 45 45s45-20.187 45-45c0-19.555-12.541-36.228-30-42.42v-63.58h-60v-30h272v30h-60v63.58c-17.459 6.192-30 22.865-30 42.42 0 24.813 20.187 45 45 45s45-20.187 45-45c0-19.555-12.541-36.228-30-42.42v-33.58h90v33.58c-17.459 6.192-30 22.865-30 42.42 0 24.813 20.187 45 45 45s45-20.187 45-45c0-19.555-12.541-36.228-30-42.42v-63.58h-60v-60h-332v60h-60v63.58c-17.459 6.192-30 22.865-30 42.42 0 24.813 20.187 45 45 45zm120-60c8.271 0 15 6.729 15 15s-6.729 15-15 15-15-6.729-15-15 6.729-15 15-15zm182 30c-8.271 0-15-6.729-15-15s6.729-15 15-15 15 6.729 15 15-6.729 15-15 15zm120-30c8.271 0 15 6.729 15 15s-6.729 15-15 15-15-6.729-15-15 6.729-15 15-15zm-422 0c8.271 0 15 6.729 15 15s-6.729 15-15 15-15-6.729-15-15 6.729-15 15-15z"/>
		<path d="m181 106c0 27.646 15.134 52.965 39.495 66.077 12.456 6.704 20.505 21.509 20.505 37.717v31.206h-30v30h90v-30h-30v-31.206c0-16.208 8.049-31.013 20.505-37.717 24.361-13.112 39.495-38.431 39.495-66.077v-46h30v-30h-30v-30h-150v30h-30v30h30zm30-76h90v76c0 16.591-9.087 31.788-23.714 39.66-8.378 4.509-15.568 10.774-21.286 18.292-5.718-7.517-12.908-13.782-21.286-18.292-14.627-7.872-23.714-23.069-23.714-39.66z"/>
	</g>
</svg>